<mxfile host="Electron" agent="Mozilla/5.0 (Windows NT 10.0; Win64; x64) AppleWebKit/537.36 (KHTML, like Gecko) draw.io/24.7.8 Chrome/128.0.6613.36 Electron/32.0.1 Safari/537.36" version="24.7.8">
  <diagram name="Página-1" id="UuQb5bXASO5Vd2X1nTOZ">
    <mxGraphModel dx="915" dy="690" grid="1" gridSize="10" guides="1" tooltips="1" connect="1" arrows="1" fold="1" page="1" pageScale="1" pageWidth="827" pageHeight="1169" math="0" shadow="0">
      <root>
        <mxCell id="0" />
        <mxCell id="1" parent="0" />
        <mxCell id="0DBewgVQdNxgb3Xc7PkQ-1" value="PROFESOR" style="whiteSpace=wrap;html=1;align=center;fillColor=#dae8fc;strokeColor=#6c8ebf;" parent="1" vertex="1">
          <mxGeometry x="150" y="100" width="100" height="40" as="geometry" />
        </mxCell>
        <mxCell id="0DBewgVQdNxgb3Xc7PkQ-41" value="" style="fontSize=12;html=1;endArrow=ERzeroToMany;endFill=0;startArrow=ERzeroToMany;rounded=0;entryX=0.5;entryY=1;entryDx=0;entryDy=0;exitX=0.5;exitY=0;exitDx=0;exitDy=0;" parent="1" source="0DBewgVQdNxgb3Xc7PkQ-4" target="0DBewgVQdNxgb3Xc7PkQ-3" edge="1">
          <mxGeometry width="100" height="100" relative="1" as="geometry">
            <mxPoint x="484" y="359.0000000000002" as="sourcePoint" />
            <mxPoint x="540" y="180" as="targetPoint" />
          </mxGeometry>
        </mxCell>
        <mxCell id="0DBewgVQdNxgb3Xc7PkQ-3" value="MODULO" style="whiteSpace=wrap;html=1;align=center;fillColor=#dae8fc;strokeColor=#6c8ebf;" parent="1" vertex="1">
          <mxGeometry x="530" y="100" width="100" height="40" as="geometry" />
        </mxCell>
        <mxCell id="0DBewgVQdNxgb3Xc7PkQ-4" value="ALUMNO" style="whiteSpace=wrap;html=1;align=center;fillColor=#dae8fc;strokeColor=#6c8ebf;" parent="1" vertex="1">
          <mxGeometry x="530" y="370" width="100" height="40" as="geometry" />
        </mxCell>
        <mxCell id="0DBewgVQdNxgb3Xc7PkQ-6" value="DNI" style="ellipse;whiteSpace=wrap;html=1;align=center;fontStyle=4;fillColor=#ffcc99;strokeColor=#36393d;" parent="1" vertex="1">
          <mxGeometry x="20" y="30" width="100" height="40" as="geometry" />
        </mxCell>
        <mxCell id="0DBewgVQdNxgb3Xc7PkQ-7" value="telefono" style="ellipse;whiteSpace=wrap;html=1;align=center;fillColor=#fff2cc;strokeColor=#d6b656;" parent="1" vertex="1">
          <mxGeometry x="10" y="200" width="100" height="40" as="geometry" />
        </mxCell>
        <mxCell id="0DBewgVQdNxgb3Xc7PkQ-8" value="dirección" style="ellipse;whiteSpace=wrap;html=1;align=center;fillColor=#fff2cc;strokeColor=#d6b656;" parent="1" vertex="1">
          <mxGeometry x="20" y="110" width="100" height="40" as="geometry" />
        </mxCell>
        <mxCell id="0DBewgVQdNxgb3Xc7PkQ-9" value="nombre" style="ellipse;whiteSpace=wrap;html=1;align=center;fillColor=#fff2cc;strokeColor=#d6b656;" parent="1" vertex="1">
          <mxGeometry x="160" y="30" width="100" height="40" as="geometry" />
        </mxCell>
        <mxCell id="0DBewgVQdNxgb3Xc7PkQ-10" value="nombre" style="ellipse;whiteSpace=wrap;html=1;align=center;fillColor=#fff2cc;strokeColor=#d6b656;" parent="1" vertex="1">
          <mxGeometry x="670" y="100" width="100" height="40" as="geometry" />
        </mxCell>
        <mxCell id="0DBewgVQdNxgb3Xc7PkQ-11" value="CÓDIGO" style="ellipse;whiteSpace=wrap;html=1;align=center;fontStyle=4;fillColor=#ffcc99;strokeColor=#36393d;" parent="1" vertex="1">
          <mxGeometry x="530" y="30" width="100" height="40" as="geometry" />
        </mxCell>
        <mxCell id="0DBewgVQdNxgb3Xc7PkQ-12" value="N° DE EXPEDIENTE" style="ellipse;whiteSpace=wrap;html=1;align=center;fontStyle=4;fillColor=#ffcc99;strokeColor=#36393d;" parent="1" vertex="1">
          <mxGeometry x="700" y="360" width="100" height="40" as="geometry" />
        </mxCell>
        <mxCell id="0DBewgVQdNxgb3Xc7PkQ-13" value="nombre" style="ellipse;whiteSpace=wrap;html=1;align=center;fillColor=#fff2cc;strokeColor=#d6b656;" parent="1" vertex="1">
          <mxGeometry x="700" y="430" width="100" height="40" as="geometry" />
        </mxCell>
        <mxCell id="0DBewgVQdNxgb3Xc7PkQ-14" value="apellidos" style="ellipse;whiteSpace=wrap;html=1;align=center;fillColor=#fff2cc;strokeColor=#d6b656;" parent="1" vertex="1">
          <mxGeometry x="440" y="450" width="100" height="40" as="geometry" />
        </mxCell>
        <mxCell id="0DBewgVQdNxgb3Xc7PkQ-15" value="fecha de nacimiento" style="ellipse;whiteSpace=wrap;html=1;align=center;fillColor=#fff2cc;strokeColor=#d6b656;" parent="1" vertex="1">
          <mxGeometry x="570" y="470" width="100" height="40" as="geometry" />
        </mxCell>
        <mxCell id="0DBewgVQdNxgb3Xc7PkQ-24" value="" style="endArrow=none;html=1;rounded=0;exitX=1;exitY=1;exitDx=0;exitDy=0;entryX=0.098;entryY=-0.024;entryDx=0;entryDy=0;entryPerimeter=0;" parent="1" source="0DBewgVQdNxgb3Xc7PkQ-6" target="0DBewgVQdNxgb3Xc7PkQ-1" edge="1">
          <mxGeometry relative="1" as="geometry">
            <mxPoint x="330" y="330" as="sourcePoint" />
            <mxPoint x="160" y="100" as="targetPoint" />
          </mxGeometry>
        </mxCell>
        <mxCell id="0DBewgVQdNxgb3Xc7PkQ-25" value="" style="endArrow=none;html=1;rounded=0;exitX=0.5;exitY=0;exitDx=0;exitDy=0;entryX=0.5;entryY=1;entryDx=0;entryDy=0;" parent="1" source="0DBewgVQdNxgb3Xc7PkQ-1" target="0DBewgVQdNxgb3Xc7PkQ-9" edge="1">
          <mxGeometry relative="1" as="geometry">
            <mxPoint x="115" y="74" as="sourcePoint" />
            <mxPoint x="170" y="109" as="targetPoint" />
          </mxGeometry>
        </mxCell>
        <mxCell id="0DBewgVQdNxgb3Xc7PkQ-26" value="" style="endArrow=none;html=1;rounded=0;exitX=1;exitY=0.5;exitDx=0;exitDy=0;entryX=0;entryY=0.5;entryDx=0;entryDy=0;" parent="1" source="0DBewgVQdNxgb3Xc7PkQ-8" target="0DBewgVQdNxgb3Xc7PkQ-1" edge="1">
          <mxGeometry relative="1" as="geometry">
            <mxPoint x="125" y="84" as="sourcePoint" />
            <mxPoint x="180" y="119" as="targetPoint" />
          </mxGeometry>
        </mxCell>
        <mxCell id="0DBewgVQdNxgb3Xc7PkQ-27" value="" style="endArrow=none;html=1;rounded=0;exitX=1;exitY=0;exitDx=0;exitDy=0;entryX=0.25;entryY=1;entryDx=0;entryDy=0;" parent="1" source="0DBewgVQdNxgb3Xc7PkQ-7" target="0DBewgVQdNxgb3Xc7PkQ-1" edge="1">
          <mxGeometry relative="1" as="geometry">
            <mxPoint x="135" y="94" as="sourcePoint" />
            <mxPoint x="190" y="129" as="targetPoint" />
          </mxGeometry>
        </mxCell>
        <mxCell id="0DBewgVQdNxgb3Xc7PkQ-28" value="" style="endArrow=none;html=1;rounded=0;exitX=0.5;exitY=1;exitDx=0;exitDy=0;entryX=0.5;entryY=0;entryDx=0;entryDy=0;" parent="1" source="0DBewgVQdNxgb3Xc7PkQ-11" target="0DBewgVQdNxgb3Xc7PkQ-3" edge="1">
          <mxGeometry relative="1" as="geometry">
            <mxPoint x="145" y="104" as="sourcePoint" />
            <mxPoint x="200" y="139" as="targetPoint" />
          </mxGeometry>
        </mxCell>
        <mxCell id="0DBewgVQdNxgb3Xc7PkQ-29" value="" style="endArrow=none;html=1;rounded=0;exitX=1;exitY=0.5;exitDx=0;exitDy=0;entryX=0;entryY=0.5;entryDx=0;entryDy=0;" parent="1" source="0DBewgVQdNxgb3Xc7PkQ-3" target="0DBewgVQdNxgb3Xc7PkQ-10" edge="1">
          <mxGeometry relative="1" as="geometry">
            <mxPoint x="155" y="114" as="sourcePoint" />
            <mxPoint x="210" y="149" as="targetPoint" />
          </mxGeometry>
        </mxCell>
        <mxCell id="0DBewgVQdNxgb3Xc7PkQ-32" value="" style="endArrow=none;html=1;rounded=0;exitX=0.5;exitY=1;exitDx=0;exitDy=0;entryX=0.5;entryY=0;entryDx=0;entryDy=0;" parent="1" source="0DBewgVQdNxgb3Xc7PkQ-4" target="0DBewgVQdNxgb3Xc7PkQ-15" edge="1">
          <mxGeometry relative="1" as="geometry">
            <mxPoint x="980" y="420" as="sourcePoint" />
            <mxPoint x="970" y="470" as="targetPoint" />
          </mxGeometry>
        </mxCell>
        <mxCell id="0DBewgVQdNxgb3Xc7PkQ-33" value="" style="endArrow=none;html=1;rounded=0;exitX=1;exitY=0.5;exitDx=0;exitDy=0;entryX=0;entryY=0.5;entryDx=0;entryDy=0;" parent="1" source="0DBewgVQdNxgb3Xc7PkQ-4" target="0DBewgVQdNxgb3Xc7PkQ-12" edge="1">
          <mxGeometry relative="1" as="geometry">
            <mxPoint x="600" y="420" as="sourcePoint" />
            <mxPoint x="630" y="480" as="targetPoint" />
          </mxGeometry>
        </mxCell>
        <mxCell id="0DBewgVQdNxgb3Xc7PkQ-34" value="" style="endArrow=none;html=1;rounded=0;exitX=1;exitY=0.75;exitDx=0;exitDy=0;entryX=0;entryY=0;entryDx=0;entryDy=0;" parent="1" source="0DBewgVQdNxgb3Xc7PkQ-4" target="0DBewgVQdNxgb3Xc7PkQ-13" edge="1">
          <mxGeometry relative="1" as="geometry">
            <mxPoint x="550" y="390" as="sourcePoint" />
            <mxPoint x="505" y="364" as="targetPoint" />
          </mxGeometry>
        </mxCell>
        <mxCell id="0DBewgVQdNxgb3Xc7PkQ-35" value="" style="endArrow=none;html=1;rounded=0;exitX=0.25;exitY=1;exitDx=0;exitDy=0;entryX=1;entryY=0;entryDx=0;entryDy=0;" parent="1" source="0DBewgVQdNxgb3Xc7PkQ-4" target="0DBewgVQdNxgb3Xc7PkQ-14" edge="1">
          <mxGeometry relative="1" as="geometry">
            <mxPoint x="550" y="410" as="sourcePoint" />
            <mxPoint x="520" y="420" as="targetPoint" />
          </mxGeometry>
        </mxCell>
        <mxCell id="0DBewgVQdNxgb3Xc7PkQ-36" value="matriculado" style="shape=rhombus;perimeter=rhombusPerimeter;whiteSpace=wrap;html=1;align=center;fillColor=#f8cecc;strokeColor=#b85450;" parent="1" vertex="1">
          <mxGeometry x="520" y="220" width="120" height="60" as="geometry" />
        </mxCell>
        <mxCell id="0DBewgVQdNxgb3Xc7PkQ-47" value="N:M" style="fontColor=default;labelBackgroundColor=none;labelBorderColor=none;whiteSpace=wrap;html=1;gradientColor=none;fillColor=none;strokeColor=none;" parent="1" vertex="1">
          <mxGeometry x="640" y="240" width="30" height="20" as="geometry" />
        </mxCell>
        <mxCell id="0DBewgVQdNxgb3Xc7PkQ-48" value="(0:M)" style="fontColor=default;labelBackgroundColor=none;labelBorderColor=none;whiteSpace=wrap;html=1;gradientColor=none;fillColor=none;strokeColor=none;" parent="1" vertex="1">
          <mxGeometry x="580" y="330" width="30" height="30" as="geometry" />
        </mxCell>
        <mxCell id="0DBewgVQdNxgb3Xc7PkQ-50" value="" style="fontSize=12;html=1;endArrow=ERoneToMany;startArrow=ERzeroToOne;rounded=0;exitX=1;exitY=0.5;exitDx=0;exitDy=0;entryX=0;entryY=0.5;entryDx=0;entryDy=0;" parent="1" source="0DBewgVQdNxgb3Xc7PkQ-1" target="0DBewgVQdNxgb3Xc7PkQ-3" edge="1">
          <mxGeometry width="100" height="100" relative="1" as="geometry">
            <mxPoint x="330" y="280" as="sourcePoint" />
            <mxPoint x="430" y="180" as="targetPoint" />
          </mxGeometry>
        </mxCell>
        <mxCell id="0DBewgVQdNxgb3Xc7PkQ-19" value="imparten" style="shape=rhombus;perimeter=rhombusPerimeter;whiteSpace=wrap;html=1;align=center;fillColor=#f8cecc;strokeColor=#b85450;" parent="1" vertex="1">
          <mxGeometry x="330" y="90" width="120" height="60" as="geometry" />
        </mxCell>
        <mxCell id="0DBewgVQdNxgb3Xc7PkQ-51" value="&lt;div style=&quot;text-align: center;&quot;&gt;&lt;span style=&quot;text-align: start; background-color: initial;&quot;&gt;1:M&lt;/span&gt;&lt;span style=&quot;color: rgba(0, 0, 0, 0); font-family: monospace; font-size: 0px; text-align: start; text-wrap: nowrap; background-color: initial;&quot;&gt;Model%3E%3Croot%3E%3CmxCell%20id%3D%220%22%2F%3E%3CmxCell%20id%3D%221%22%20parent%3D%220%22%2F%3E%3CmxCell%20id%3D%222%22%20value%3D%22N%3AM%22%20style%3D%22fontColor%3Ddefault%3BlabelBackgroundColor%3Dnone%3BlabelBorderColor%3Dnone%3BwhiteSpace%3Dwrap%3Bhtml%3D1%3BgradientColor%3Dnone%3BfillColor%3Dnone%3BstrokeColor%3Dnone%3B%22%20vertex%3D%221%22%20parent%3D%221%22%3E%3CmxGeometry%20x%3D%22640%22%20y%3D%22240%22%20width%3D%2230%22%20height%3D%2220%22%20as%3D%22geometry%22%2F%3E%3C%2FmxCell%3E%3C%2Froot%3E%3C%2FmxGraphModel%3E&lt;/span&gt;&lt;/div&gt;" style="fontColor=default;labelBackgroundColor=none;labelBorderColor=none;whiteSpace=wrap;html=1;gradientColor=none;fillColor=none;strokeColor=none;" parent="1" vertex="1">
          <mxGeometry x="375" y="70" width="30" height="20" as="geometry" />
        </mxCell>
        <mxCell id="0DBewgVQdNxgb3Xc7PkQ-53" value="&lt;div style=&quot;text-align: center;&quot;&gt;&lt;span style=&quot;text-align: start; background-color: initial;&quot;&gt;(1:M)&lt;/span&gt;&lt;span style=&quot;color: rgba(0, 0, 0, 0); font-family: monospace; font-size: 0px; text-align: start; text-wrap: nowrap; background-color: initial;&quot;&gt;odel%3E%3Croot%3E%3CmxCell%20id%3D%220%22%2F%3E%3CmxCell%20id%3D%221%22%20parent%3D%220%22%2F%3E%3CmxCell%20id%3D%222%22%20value%3D%22N%3AM%22%20style%3D%22fontColor%3Ddefault%3BlabelBackgroundColor%3Dnone%3BlabelBorderColor%3Dnone%3BwhiteSpace%3Dwrap%3Bhtml%3D1%3BgradientColor%3Dnone%3BfillColor%3Dnone%3BstrokeColor%3Dnone%3B%22%20vertex%3D%221%22%20parent%3D%221%22%3E%3CmxGeometry%20x%3D%22640%22%20y%3D%22240%22%20width%3D%2230%22%20height%3D%2220%22%20as%3D%22geometry%22%2F%3E%3C%2FmxCell%3E%3C%2Froot%3E%3C%2FmxGraphModel%3E&lt;/span&gt;&lt;/div&gt;" style="fontColor=default;labelBackgroundColor=none;labelBorderColor=none;whiteSpace=wrap;html=1;gradientColor=none;fillColor=none;strokeColor=none;" parent="1" vertex="1">
          <mxGeometry x="490" y="100" width="30" height="20" as="geometry" />
        </mxCell>
        <mxCell id="0DBewgVQdNxgb3Xc7PkQ-54" value="(0:1)" style="fontColor=default;labelBackgroundColor=none;labelBorderColor=none;whiteSpace=wrap;html=1;gradientColor=none;fillColor=none;strokeColor=none;" parent="1" vertex="1">
          <mxGeometry x="270" y="100" width="30" height="20" as="geometry" />
        </mxCell>
        <mxCell id="0DBewgVQdNxgb3Xc7PkQ-55" value="(0:M)" style="fontColor=default;labelBackgroundColor=none;labelBorderColor=none;whiteSpace=wrap;html=1;gradientColor=none;fillColor=none;strokeColor=none;" parent="1" vertex="1">
          <mxGeometry x="580" y="150" width="30" height="30" as="geometry" />
        </mxCell>
      </root>
    </mxGraphModel>
  </diagram>
</mxfile>
